<?xml version="1.0" encoding="UTF-8" standalone="no"?>
<!-- Created with Inkscape (http://www.inkscape.org/) -->

<svg
   xmlns:dc="http://purl.org/dc/elements/1.1/"
   xmlns:cc="http://creativecommons.org/ns#"
   xmlns:rdf="http://www.w3.org/1999/02/22-rdf-syntax-ns#"
   xmlns:svg="http://www.w3.org/2000/svg"
   xmlns="http://www.w3.org/2000/svg"
   xmlns:sodipodi="http://sodipodi.sourceforge.net/DTD/sodipodi-0.dtd"
   xmlns:inkscape="http://www.inkscape.org/namespaces/inkscape"
   width="639.12384mm"
   height="373.27921mm"
   viewBox="0 0 639.12384 373.27921"
   version="1.1"
   id="svg943"
   sodipodi:docname="fava.svg"
   inkscape:version="0.92.4 (5da689c313, 2019-01-14)"
   inkscape:export-filename="C:\Users\zampi\fava_scura.png"
   inkscape:export-xdpi="299"
   inkscape:export-ydpi="299">
  <defs
     id="defs937" />
  <sodipodi:namedview
     id="base"
     pagecolor="#ffffff"
     bordercolor="#666666"
     borderopacity="1.0"
     inkscape:pageopacity="0.0"
     inkscape:pageshadow="2"
     inkscape:zoom="0.12374369"
     inkscape:cx="1160.0714"
     inkscape:cy="704.70335"
     inkscape:document-units="mm"
     inkscape:current-layer="layer1"
     showgrid="false"
     inkscape:window-width="1366"
     inkscape:window-height="705"
     inkscape:window-x="-8"
     inkscape:window-y="-8"
     inkscape:window-maximized="1" />
  <metadata
     id="metadata940">
    <rdf:RDF>
      <cc:Work
         rdf:about="">
        <dc:format>image/svg+xml</dc:format>
        <dc:type
           rdf:resource="http://purl.org/dc/dcmitype/StillImage" />
      </cc:Work>
    </rdf:RDF>
  </metadata>
  <g
     inkscape:label="Livello 1"
     inkscape:groupmode="layer"
     id="layer1"
     transform="translate(308.33678,105.73987)">
    <path
       style="opacity:1;fill:#93c973;fill-opacity:1;fill-rule:nonzero;stroke:none;stroke-width:0;stroke-linejoin:miter;stroke-miterlimit:4;stroke-dasharray:none;stroke-dashoffset:0;stroke-opacity:1"
       d="m 54.627831,-105.73984 c 5.30521,0.31188 14.51007,0.88399 22.60534,1.53686 0.65392,0.28168 2.25878,0.45565 5.73453,0.68937 3.10266,0.20861 5.74619,0.48144 8.89352,0.94102 12.642849,2.11568 35.280119,7.38123 51.330199,12.38426 4.55956,1.7395 14.46584,6.50152 39.13197,18.76733 25.99738,12.92779 32.39833,15.88528 39.33455,18.17202 5.8239,1.92003 8.31058,2.38621 12.7,2.38021 6.05144,-0.008 11.15205,-1.72645 23.46007,-7.90701 17.20501,-8.63967 25.77338,-15.34393 32.18098,-25.17934 5.5426,-8.50765 8.82938,-10.3864 13.80019,-7.88686 5.01221,2.52036 18.6935,20.08728 23.17946,29.76253 4.50225,9.71035 5.06841,19.74066 1.3994,24.80572 -2.73087,3.76987 -6.98968,5.20582 -16.93799,5.71231 -7.855,0.39989 -12.55051,1.20494 -19.57916,3.3569 -6.38059,1.95353 -13.16017,3.65708 -19.57917,4.9196 -16.69052,3.28281 -25.39164,9.68792 -32.10501,23.63318 -2.47732,5.14598 -3.89621,9.05797 -6.72259,18.53117 -3.7755,12.65445 -7.29033,21.51213 -13.56868,34.19636 -10.00019,20.20361 -20.92965,37.412982 -34.51831,54.3512 -25.86743,32.24374 -76.44124,88.66241 -90.885399,101.38916 -15.57012,13.71884 -27.76014,21.76913 -48.43735,31.98771 -30.843093,15.24247 -54.839583,22.75637 -82.795983,25.92659 -3.41455,0.38719 -9.45488,0.63812 -18.16789,0.75396 -14.98215,0.19917 -18.78125,-0.0354 -41.27499,-2.54455 -7.761118,-0.86569 -24.505328,-2.60867 -37.209098,-3.87367 -22.21735,-2.21226 -32.16776,-3.33612 -36.03759,-4.07003 -0.55966,-0.10615 -0.96675,-0.1848 -1.26556,-0.2372 l -13.856,-3.81113 -9.26197,-3.32021 c -10.78831,-3.86701 -20.29159,-7.63363 -32.36856,-12.82919 -7.88014,-3.39008 -13.19212,-5.77548 -31.39705,-14.09837 -12.6961,-5.80419 -18.70406,-8.14615 -25.57674,-9.96993 -1.16417,-0.30896 -4.43842,-0.70609 -7.27605,-0.88264 -6.29306,-0.39154 -9.31587,-1.1055 -11.79565,-2.78639 -2.33347,-1.58176 -3.79609,-3.41148 -4.73562,-5.92264 -1.73022,-4.62433 -1.82613,-12.35239 -0.21291,-17.15812 1.93069,-5.64122 7.59158,-14.32192 10.25466,-19.99207 1.44696,-3.69744 3.30846,-8.40616 5.50974,-13.8374 2.53831,-5.7142 2.27259,-5.15805 4.36769,-10.61123 2.11931,-5.06452 4.32706,-10.20058 6.49056,-15.02338 0.63459,-0.81724 1.26569,-1.96723 2.02469,-3.49281 3.93708,-7.91372 12.14785,-30.069899 14.98255,-40.428019 0.60465,-2.209458 1.58705,-4.75679 2.31252,-5.997048 5.31147,-9.080553 23.78004,-33.087923 41.0099,-53.308893 6.8675,-8.05965 9.91904,-11.46482 16.12666,-17.80821 10.99255,-10.60408 26.47347,-23.71885 35.90117,-31.3986 3.53935,-2.10677 7.18066,-4.97897 10.46189,-8.34058 9.23939,-7.18557 22.31796,-16.50483 43.84591,-26.9539 2.40777,-1.1249 5.04691,-2.36613 7.7127,-3.62407 0.10659,-0.0485 0.20879,-0.0962 0.31575,-0.1447 3.58752,-1.6269 7.659608,-3.55135 12.030788,-5.66632 12.15432,-5.67153 18.565,-8.40046 29.02561,-12.47831 7.62586,-2.97275 23.98734,-8.48801 31.76705,-10.70839 27.50584,-7.85029 54.75962,-11.79518 81.667883,-11.82098 2.04089,-0.002 4.06537,-0.0336 6.00739,-0.0853 z"
       id="path1585"
       inkscape:connector-curvature="0"
       inkscape:export-filename="C:\Users\zampi\fava_acerba.png"
       inkscape:export-xdpi="299"
       inkscape:export-ydpi="299" />
    <path
       id="path1520"
       style="fill:#523523;fill-opacity:1;stroke-width:0.35277778"
       d="m -199.05611,121.6969 c -0.888,-0.27358 -1.90522,-0.81862 -2.26048,-1.21116 -0.62842,-0.69441 -0.62291,-0.74573 0.20343,-1.89329 0.92538,-1.28509 3.95811,-4.13988 7.0334,-6.62072 7.91985,-6.38894 44.66916,-26.863461 78.65902,-43.824101 16.693244,-8.329747 21.828454,-10.672867 34.925004,-15.935707 23.92148,-9.61288 41.69333,-15.69343 45.86757,-15.69343 3.34885,0 4.66542,3.25491 2.3748,5.871 -2.27906,2.60294 -6.86467,5.10191 -21.78403,11.87147 -21.9498,9.95962 -49.180124,23.287707 -95.758504,46.869768 -33.97791,17.20261 -39.93379,20.02187 -43.81188,20.73878 -2.55875,0.47301 -3.44391,0.44496 -5.44833,-0.17261 z M 54.628341,-105.73987 c -1.94202,0.0517 -3.9665,0.0834 -6.00739,0.0853 -26.90826,0.0258 -54.1620404,3.9707 -81.667877,11.820992 -7.77971,2.22038 -24.1417,7.73564 -31.76756,10.70839 -10.46061,4.07785 -16.8713,6.80677 -29.02562,12.4783 -4.37118,2.11497 -8.442764,4.03943 -12.030284,5.66633 -0.10696,0.0485 -0.20915,0.0962 -0.31574,0.14469 -2.66579,1.25794 -5.30494,2.49918 -7.71271,3.62407 -21.52794,10.44908 -34.60651,19.76835 -43.8459,26.95392 -3.28123,3.36161 -6.92254,6.23379 -10.46189,8.34056 -9.4277,7.67975 -24.90862,20.7945296 -35.90117,31.3986096 -6.20763,6.3433904 -9.25917,9.7485504 -16.12667,17.8082004 -17.22986,20.22097 -35.69842,44.228337 -41.0099,53.308887 -0.72546,1.24026 -1.70786,3.78761 -2.31251,5.99707 -2.83471,10.35812 -11.04599,32.514301 -14.98307,40.428021 -0.75899,1.52558 -1.38958,2.67557 -2.02417,3.49281 -2.1635,4.8228 -4.37125,9.95884 -6.49056,15.02336 -2.0951,5.45318 -1.82939,4.89704 -4.36769,10.61125 -2.20129,5.43123 -4.06279,10.13992 -5.50974,13.83739 -2.66308,5.67015 -8.32396,14.35083 -10.25467,19.99205 -1.61322,4.80573 -1.51729,12.53379 0.21291,17.15815 0.93955,2.51116 2.40216,4.34088 4.73562,5.92262 2.47978,1.68092 5.50259,2.39485 11.79567,2.7864 2.83762,0.17656 6.11187,0.5737 7.27604,0.88263 6.87268,1.82382 12.88012,4.16573 25.57622,9.96992 18.20494,8.32287 23.51741,10.7083 31.39756,14.09838 12.07696,5.19559 21.58026,8.96217 32.36857,12.82919 l 9.26197,3.3202 13.856,3.81114 c 0.29881,0.0524 0.70589,0.13105 1.26555,0.2372 3.86983,0.73388 13.82025,1.85775 36.0376,4.07003 12.70377,1.265 29.44747,3.00795 37.208584,3.87366 22.49375,2.50915 26.29285,2.74373 41.275,2.54455 8.71301,-0.11583 14.75384,-0.36674 18.1684,-0.75395 27.9563896,-3.17019 51.952377,-10.68412 82.795467,-25.92658 20.67721,-10.21858 32.86773,-18.26889 48.43785,-31.98772 14.444159,-12.72673 65.017469,-69.14542 90.884909,-101.38916 13.58865,-16.938221 24.51862,-34.147601 34.51881,-54.351208 6.27835,-12.68423 9.79268,-21.5419 13.56817,-34.19636 2.82639,-9.4732004 4.24577,-13.3851704 6.72309,-18.53115039 6.71338,-13.94525961 15.4145,-20.35037961 32.10502,-23.63318961 6.419,-1.26252 13.19858,-2.96606 19.57917,-4.91959 7.02865,-2.15196 11.72416,-2.95701 19.57916,-3.3569 9.94831,-0.50649 14.20662,-1.94246 16.93749,-5.71233 3.669,-5.06506 3.10335,-15.09536 -1.3989,-24.80571 -4.48596,-9.67525 -18.16725,-27.24216 -23.17946,-29.76252 -4.97081,-2.49954 -8.2581,-0.6208 -13.8007,7.88685 -6.40759,9.83541 -14.97597,16.53968 -32.18097,25.17935 -12.30802,6.18056 -17.40813,7.89901 -23.45958,7.907 -4.38941,0.006 -6.87609,-0.46018 -12.7,-2.38021 -6.93621,-2.28674 -13.33717,-5.24423 -39.33454,-18.17202 -24.66613,-12.26581 -34.57242,-17.02783 -39.13198,-18.76733 -16.05008,-5.00303 -38.68785,-10.268572 -51.330699,-12.384252 -3.14733,-0.45958 -5.79086,-0.73241 -8.89352,-0.94103 -3.47575,-0.23371 -5.08061,-0.40769 -5.73453,-0.68937 -8.09527,-0.65287 -17.29962,-1.22497 -22.60483,-1.53685 z m -8.73951,12.131042 c 8.92696,0.0244 19.04238,0.3239 23.89878,0.80563 11.88813,1.17929 22.36838,2.81678 34.219619,5.34748 20.01483,4.27395 40.53798,10.74336 51.68162,16.291 3.33338,1.65944 8.54067,4.99376 9.5627,6.12314 0.5687,0.62829 0.56439,0.66352 -0.0868,0.66352 -0.37838,0 -3.22122,-0.63707 -6.31692,-1.41593 -19.10752,-4.80741 -39.90137,-7.91955 -61.367299,-9.18497 -8.55089,-0.50216 -30.10382,-0.50138 -38.80541,0.004 -25.13121,1.45856 -51.1258004,5.4013 -75.538537,11.45666 -19.33233,4.79521 -28.81908,8.12414 -31.68952,11.12025 -1.99948,2.08699 -1.35486,5.87473 1.21852,7.16029 1.61662,0.80761 3.84813,0.77951 8.23464,-0.10335 4.00668,-0.80645 5.25059,-1.13208 17.51781,-4.58112 15.6415596,-4.39777 28.1384866,-7.04438 44.802927,-9.48934 36.89463,-5.41303 80.632669,-5.62638 109.361279,-0.5333 20.22629,3.58574 73.96022,18.12753 76.93639,20.82095 2.38651,2.15977 -0.55586,3.12899 -20.31556,6.69158 -34.16215,6.15931 -88.27558,19.20018 -114.657579,27.6313896 -30.92849,9.8842 -81.0418174,28.0888804 -90.600687,32.9127104 -2.29901,1.1602 -4.96723,3.45673 -5.72987,4.93149 -0.27611,0.53401 -0.50231,1.61642 -0.50231,2.40501 0,1.23907 0.15592,1.5286 1.14671,2.1327 0.63061,0.38444 1.55294,0.70072 2.05002,0.70072 2.64226,0.004 22.6333266,-6.05036 59.950337,-18.15497 66.123639,-21.4487104 95.124879,-29.3542204 137.230889,-37.40856 6.69395,-1.28048 16.93333,-3.25842 22.75416,-4.3956 5.82083,-1.13721 11.50808,-2.17363 12.63851,-2.3032 2.93518,-0.33644 5.26979,0.30848 6.97013,1.92598 1.17634,1.11903 1.38131,1.53289 1.38131,2.78691 0,1.99189 -1.22211,4.85995 -4.26796,10.0154096 -14.74862,24.9639904 -33.27239,48.0535104 -59.93072,74.7019004 -17.62392,17.617307 -28.55196,27.560927 -62.802879,57.146868 -16.26036,14.04573 -30.6901,27.77697 -30.6901,29.20445 0,0.37766 0.34398,1.124 0.76427,1.65827 0.73909,0.93959 0.85194,0.96573 3.43959,0.8046 5.06833,-0.31551 11.66884,-3.66755 20.31918,-10.31925 20.069649,-15.43259 63.846969,-54.754781 81.696819,-73.382611 18.69702,-19.511907 35.60733,-39.967747 46.80643,-56.620827 3.97277,-5.9075904 6.2207,-8.8196204 6.80942,-8.8196204 2.63973,0 -13.96552,39.2089204 -23.72259,56.0141704 -5.82589,10.034367 -16.49661,26.494307 -20.86176,32.180447 -19.80647,25.800261 -71.95971,83.827271 -89.984179,100.118431 -19.7861,17.8834 -36.8104,29.69877 -57.54635,39.93865 -21.32621,10.53136 -42.224607,16.69372 -65.796497,19.40245 v -0.001 c -5.99085,0.68844 -16.82611,1.08717 -22.92678,0.84386 -29.68347,-1.18385 -60.917094,-3.48888 -78.590554,-5.80017 -5.10356,-0.66744 -9.47035,-1.49929 -9.84694,-1.87584 -0.65546,-0.65551 5.75115,-3.00369 18.55752,-6.80115 46.043784,-13.65324 97.355234,-33.49021 142.096741,-54.93461 13.37586,-6.41099 28.52545,-14.43564 33.26361,-17.61961 3.00897,-2.02195 5.38831,-4.2663 6.03736,-5.69526 0.62119,-1.36761 0.96946,-6.19393 0.44702,-6.19393 -0.37796,0 -14.67067,5.939 -38.23438,15.88739 -50.775657,21.43709 -58.493967,24.63974 -77.787487,32.2771 -50.010984,19.79697 -79.181914,28.45641 -105.210124,31.23118 -5.82369,0.62087 -18.83106,0.25397 -24.31634,-0.68575 -15.00612,-2.57077 -29.49687,-7.83733 -56.38726,-20.49436 -18.23937,-8.58509 -29.18834,-13.17612 -32.84192,-13.77074 -2.11168,-0.3437 -3.96628,-1.19806 -4.25969,-1.96266 -0.31457,-0.81975 1.43294,-3.0245 5.55057,-7.00267 13.78889,-13.32177 45.36059,-37.58149 60.44592,-46.44678 5.95412,-3.49914 8.81966,-6.74296 9.263,-10.48618 0.18643,-1.57425 0.10994,-1.86981 -0.68781,-2.66753 -1.90593,-1.90598 -3.90453,-1.63661 -9.9534,1.34099 -13.14072,6.46861 -41.21584,25.73679 -56.38416,38.69737 -6.48361,5.53996 -11.02333,9.13019 -11.54503,9.13019 -0.66268,0 -0.28564,-0.85555 2.61845,-5.94225 1.62355,-2.84374 6.96109,-12.39372 11.86129,-21.22196 19.40481,-34.96001 23.09588,-40.78515 34.42425,-54.327451 33.66227,-40.240927 82.55099,-83.787697 117.09725,-104.3021374 10.79955,-6.4130996 25.155224,-13.7557396 38.452954,-19.6680696 16.27854,-7.23706 25.23322,-12.02271 27.47067,-14.68178 0.84088,-0.99952 0.97137,-1.41404 0.81442,-2.58434 -0.1137,-0.84759 -0.54621,-1.75332 -1.1038,-2.31045 -1.87974,-1.87809 -6.04179,-0.94072 -20.47886,4.61264 -33.132864,12.74477 -55.113884,25.20741 -86.606604,49.1024296 -23.8061,18.0628204 -41.84846,33.8410304 -62.6184,54.7620304 -11.87943,11.965777 -16.13602,16.019167 -16.82378,16.019167 -0.90833,0 0.6643,-3.42646 5.18108,-11.28717 18.70656,-32.555657 55.96298,-69.2895574 100.36649,-98.958797 24.18019,-16.15663 48.013724,-28.61747 76.519874,-40.00739 33.23616,-13.27983 62.4765066,-20.31968 92.563857,-22.28546 3.10804,-0.20306 8.03627,-0.28747 13.39247,-0.27285 z m 249.905679,27.47067 c 2.33883,0 3.59733,1.76325 9.63144,13.49375 l 4.31033,8.3783 h -2.9404 c -4.69506,0.002 -15.52964,2.47559 -36.27786,8.28115 -11.46035,3.20672 -21.69973,5.6888 -26.15087,6.33915 v 10e-4 c -2.06221,0.30131 -4.28453,0.53073 -4.93873,0.50953 -4.2326,-0.13755 -8.42119,-2.43583 -8.42119,-4.62039 0,-0.90178 2.41001,-2.00591 10.26089,-4.70151 22.52683,-7.73474 39.9398,-15.57982 47.50615,-21.40284 1.01864,-0.78394 1.85208,-1.52767 1.85208,-1.65313 0,-0.12541 0.91829,-1.21754 2.04068,-2.42672 1.65105,-1.77867 2.24827,-2.19832 3.12748,-2.19832 z"
       inkscape:connector-curvature="0"
       sodipodi:nodetypes="cccsccsccsccccccccccccccccccccccssccccccccccsccssccscccccscccssccccccccsccscccscccscccssccsccscccsscccsccsscsccssccscccsccsscccsccccccscsccsccccccscsscscccccccscccscssccc" />
  </g>
</svg>
